<?xml version="1.0" encoding="UTF-8" standalone="no"?>
<!DOCTYPE svg PUBLIC "-//W3C//DTD SVG 1.1//EN" "http://www.w3.org/Graphics/SVG/1.1/DTD/svg11.dtd">
<svg width="100%" height="100%" viewBox="0 0 512 512" version="1.1" xmlns="http://www.w3.org/2000/svg" xmlns:xlink="http://www.w3.org/1999/xlink" xml:space="preserve" xmlns:serif="http://www.serif.com/" style="fill-rule:evenodd;clip-rule:evenodd;stroke-linejoin:round;stroke-miterlimit:2;">
    <path d="M463.875,114.441L452.57,80.555C448.266,67.648 436.23,58.977 422.629,58.977L327.617,58.977L327.617,28.043C327.617,12.582 315.047,0 299.59,0L212.582,0C197.129,0 184.555,12.582 184.555,28.043L184.555,58.977L89.547,58.977C75.941,58.977 63.906,67.648 59.602,80.555L48.297,114.441C45.723,122.156 47.027,130.699 51.781,137.297C56.535,143.895 64.227,147.836 72.359,147.836L84.176,147.836L110.184,469.441C112.117,493.305 132.367,512 156.293,512L361.156,512C385.078,512 405.332,493.305 407.262,469.438L433.27,147.836L439.813,147.836C447.945,147.836 455.637,143.895 460.391,137.301C465.145,130.703 466.449,122.156 463.875,114.441ZM214.555,30L297.617,30L297.617,58.977L214.555,58.977L214.555,30ZM377.359,467.02C376.68,475.422 369.563,482 361.156,482L156.293,482C147.887,482 140.77,475.422 140.09,467.02L114.273,147.836L403.172,147.836L377.359,467.02ZM78.793,117.836L88.063,90.047C88.273,89.406 88.871,88.977 89.547,88.977L422.629,88.977C423.305,88.977 423.898,89.406 424.113,90.047L433.383,117.836L78.793,117.836Z" style="fill:white;fill-rule:nonzero;"/>
    <path d="M329.516,465.957C329.781,465.973 330.043,465.977 330.309,465.977C338.234,465.977 344.859,459.766 345.273,451.758L359.359,181.359C359.789,173.086 353.43,166.027 345.16,165.598C336.867,165.156 329.832,171.523 329.398,179.797L315.316,450.195C314.887,458.469 321.242,465.527 329.516,465.957Z" style="fill:white;fill-rule:nonzero;"/>
    <path d="M167.566,451.793C168.004,459.789 174.621,465.977 182.531,465.977C182.805,465.977 183.086,465.969 183.363,465.953C191.633,465.504 197.973,458.434 197.523,450.16L182.77,179.762C182.32,171.488 175.25,165.148 166.977,165.602C158.707,166.051 152.367,173.121 152.816,181.395L167.566,451.793Z" style="fill:white;fill-rule:nonzero;"/>
    <path d="M256.254,465.977C264.539,465.977 271.254,459.262 271.254,450.977L271.254,180.578C271.254,172.293 264.539,165.578 256.254,165.578C247.969,165.578 241.254,172.293 241.254,180.578L241.254,450.977C241.254,459.262 247.969,465.977 256.254,465.977Z" style="fill:white;fill-rule:nonzero;"/>
</svg>
